<?xml version="1.0" standalone="no"?>
<!DOCTYPE svg PUBLIC "-//W3C//DTD SVG 20010904//EN"
 "http://www.w3.org/TR/2001/REC-SVG-20010904/DTD/svg10.dtd">
<svg version="1.0" xmlns="http://www.w3.org/2000/svg"
 width="380.000000pt" height="268.000000pt" viewBox="0 0 380.000000 268.000000"
 preserveAspectRatio="xMidYMid meet">

<g transform="translate(0.000000,268.000000) scale(0.100000,-0.100000)"
fill="#000000" stroke="none">
<path d="M1914 2407 c-1 -28 -5 -70 -8 -92 -4 -22 -7 -54 -7 -72 1 -18 -7 -39
-16 -49 -13 -13 -14 -19 -5 -22 20 -6 14 -40 -10 -53 -20 -11 -20 -13 -5 -24
25 -18 21 -42 -10 -57 -28 -13 -30 -33 -3 -33 8 0 16 -10 18 -21 2 -17 -6 -26
-34 -40 -51 -26 -55 -44 -10 -44 51 0 48 -39 -4 -55 -34 -11 -80 -46 -80 -62
0 -9 15 -13 50 -13 38 0 50 -4 50 -15 0 -11 -11 -15 -40 -15 -33 0 -48 -7 -85
-41 -25 -23 -45 -45 -45 -50 0 -5 36 -9 81 -9 71 0 80 -2 77 -17 -2 -14 -17
-19 -64 -24 -57 -5 -67 -10 -123 -60 -33 -29 -61 -57 -61 -62 0 -9 220 -3 300
8 34 5 50 2 65 -10 19 -16 19 -16 -4 -4 -26 12 -90 8 -136 -10 -24 -10 -27
-14 -15 -23 12 -8 12 -9 -3 -4 -10 3 -27 0 -38 -8 -19 -13 -19 -14 6 -30 39
-26 35 -75 -10 -115 -20 -17 -42 -31 -50 -31 -24 0 -17 -14 15 -32 25 -14 30
-23 30 -57 0 -93 -135 -169 -234 -131 -48 18 -22 90 32 90 34 0 38 -21 7 -46
-32 -25 -26 -44 13 -44 63 0 132 73 132 141 0 45 -18 61 -71 63 -39 1 -44 -2
-87 -56 -52 -67 -136 -135 -189 -154 -96 -34 -173 -5 -173 65 0 67 94 182 203
245 54 32 173 76 202 75 11 0 -2 -7 -30 -14 -90 -25 -191 -83 -250 -146 -61
-64 -85 -110 -85 -163 0 -43 22 -66 62 -66 55 0 110 43 196 153 45 57 113 134
151 170 l70 66 -47 4 c-41 3 -38 4 17 5 90 3 67 21 -37 29 -75 5 -82 8 -82 27
0 12 5 27 12 34 9 9 9 12 0 12 -7 0 -12 14 -12 34 0 37 -23 100 -33 90 -3 -4
-12 15 -18 42 -9 35 -14 43 -19 29 -5 -13 -13 1 -33 54 -15 40 -27 82 -27 94
-1 12 -15 -20 -33 -71 -20 -60 -34 -86 -38 -75 -7 21 -15 8 -24 -41 -5 -26
-10 -34 -16 -24 -6 9 -9 4 -9 -15 0 -16 -4 -26 -9 -23 -11 7 -22 -71 -21 -146
1 -46 -2 -58 -15 -58 -11 0 -15 10 -14 43 2 46 -19 127 -33 127 -4 0 -8 9 -8
20 0 11 -6 20 -13 20 -8 0 -22 26 -32 61 -11 34 -21 56 -22 48 -15 -59 -38
-117 -44 -108 -3 6 -10 -2 -13 -18 -4 -15 -14 -36 -23 -45 -10 -11 -15 -38
-15 -87 0 -75 -4 -83 -50 -88 l-29 -3 3 83 3 82 28 0 c30 -1 35 16 11 39 -19
19 -26 20 -42 4 -9 -9 -12 -9 -12 0 0 29 -48 6 -55 -26 -3 -19 0 -21 26 -15
l29 6 0 -87 c0 -70 -3 -86 -15 -86 -12 0 -15 14 -15 65 l0 65 -30 0 -30 0 0
-63 0 -64 -96 -6 c-52 -4 -121 -4 -153 0 -98 10 -287 -32 -333 -74 -22 -19 -8
-43 26 -43 19 -1 18 -2 -6 -16 -16 -8 -28 -21 -28 -30 0 -19 40 -34 62 -23 9
5 25 9 35 8 27 -1 -25 -20 -61 -22 -27 -2 -52 -27 -26 -27 6 0 19 -7 27 -16
11 -11 30 -15 60 -12 38 3 43 1 43 -17 0 -12 5 -26 10 -31 7 -7 6 -20 -5 -40
-14 -26 -13 -30 2 -41 9 -7 22 -13 29 -13 7 0 14 -4 16 -9 7 -18 164 -61 222
-61 58 0 59 0 41 -20 -14 -15 -15 -23 -6 -34 23 -27 88 -27 283 4 208 32 505
70 738 95 80 9 327 20 550 25 385 10 814 29 807 36 -2 2 -154 11 -338 19 -358
17 -407 21 -393 35 16 16 243 13 347 -5 54 -9 107 -15 119 -12 12 4 112 -3
222 -13 111 -11 217 -19 236 -19 39 2 -180 36 -250 40 l-45 2 45 7 c30 5 15 6
-45 4 -59 -2 -81 0 -65 5 21 8 17 9 -25 11 -27 0 -68 5 -90 9 -36 7 -32 8 40
13 83 5 294 -20 523 -63 62 -12 115 -19 118 -17 5 6 -213 68 -236 68 -7 0 -11
3 -8 6 3 3 52 -4 108 -16 55 -12 104 -20 107 -16 13 12 -19 34 -60 40 -100 16
-239 53 -223 59 28 11 48 8 40 -5 -5 -8 0 -9 16 -5 13 3 29 2 34 -2 13 -10 96
-24 96 -16 0 3 -15 12 -32 20 -18 8 -27 14 -20 15 7 0 10 5 6 12 -5 8 6 10 42
5 193 -24 185 -17 -26 22 -186 35 -384 85 -353 89 33 5 372 -44 548 -78 170
-34 165 -33 165 -21 0 32 -344 99 -660 129 l-75 7 -3 83 -3 83 -37 -3 -37 -3
-5 -80 -4 -80 -6 85 -5 85 -37 3 -38 3 0 -65 c0 -84 -18 -87 -22 -3 l-3 62
-37 3 -38 3 -1 -63 c-1 -35 -3 -52 -6 -38 -10 66 -13 70 -43 70 -36 0 -39 -6
-41 -64 -1 -25 -6 -46 -11 -46 -5 0 -8 30 -6 68 l3 67 32 0 c24 0 31 4 30 17
-1 10 -6 18 -11 18 -5 0 -7 3 -3 6 11 11 -21 34 -37 28 -9 -3 -16 -15 -16 -26
0 -31 -25 -71 -72 -114 -72 -66 -259 -217 -263 -212 -2 2 45 45 105 96 82 69
108 97 104 110 -4 12 -3 13 3 4 12 -17 48 21 48 51 0 14 8 23 20 25 11 3 23 9
27 16 25 38 -22 34 -68 -6 -61 -54 -274 -308 -258 -308 4 0 -6 -15 -23 -32
-38 -41 -83 -109 -83 -125 0 -30 33 -13 140 75 49 40 94 61 106 49 3 -3 -15
-31 -40 -62 -54 -66 -62 -94 -18 -70 15 8 43 27 62 41 24 18 20 13 -10 -14
-102 -93 -176 -69 -98 32 18 22 23 34 13 25 -141 -115 -175 -133 -202 -106
-13 13 -12 20 7 58 l22 43 -48 -43 c-75 -66 -144 -87 -144 -44 0 8 -3 13 -7
11 -88 -45 -123 -45 -123 2 0 35 55 95 106 116 39 16 90 18 99 4 4 -7 12 -7
25 0 48 26 48 8 0 -52 -58 -72 -65 -97 -22 -74 44 23 146 116 198 181 26 33
70 85 96 114 28 33 48 65 49 80 1 19 3 21 6 7 4 -16 12 -11 54 30 27 27 49 56
49 66 0 13 8 18 25 18 14 0 25 4 25 8 0 12 -34 42 -48 42 -7 0 -12 5 -12 10 0
6 8 10 17 10 14 0 12 4 -7 17 -14 9 -28 21 -32 27 -4 5 -13 3 -22 -7 -9 -9
-26 -19 -38 -23 l-23 -7 25 -10 c23 -9 23 -10 5 -15 -22 -5 -55 -31 -55 -44 0
-4 14 -8 30 -8 20 0 30 -5 30 -15 0 -9 -9 -15 -24 -15 -13 0 -29 -7 -36 -15
-19 -23 -27 -19 -86 37 -53 50 -58 52 -120 56 -55 4 -64 7 -64 23 0 17 8 19
80 19 44 0 80 4 80 9 0 5 -20 27 -45 50 -37 34 -52 41 -85 41 -29 0 -40 4 -40
15 0 11 12 15 50 15 28 0 50 4 50 8 0 15 -55 59 -85 69 -19 6 -31 17 -33 31
-3 19 1 22 32 22 20 0 36 4 36 9 0 14 -41 41 -62 41 -13 0 -18 8 -18 25 0 18
5 25 20 25 28 0 25 25 -5 38 -29 13 -32 39 -7 58 16 13 15 14 -7 20 -20 6 -22
11 -18 40 3 19 1 36 -4 40 -6 3 -9 18 -8 32 2 15 0 32 -3 37 -6 10 -10 54 -12
143 -1 68 -21 68 -22 -1z m645 -972 l-2 -55 -43 0 c-28 0 -44 4 -44 12 0 10
78 98 87 98 2 0 2 -25 2 -55z m-304 25 c3 -5 18 -10 32 -10 15 0 24 -2 21 -5
-2 -3 -63 -6 -134 -8 -116 -2 -129 0 -132 16 -3 15 7 17 102 17 59 0 108 -4
111 -10z m53 -51 c-2 -6 -7 -10 -11 -10 -4 1 -61 1 -127 1 -73 0 -120 4 -120
10 0 6 50 10 131 10 89 0 130 -3 127 -11z m372 -29 c0 -5 -2 -10 -4 -10 -3 0
-8 5 -11 10 -3 6 -1 10 4 10 6 0 11 -4 11 -10z m100 -10 c0 -5 -4 -10 -10 -10
-5 0 -10 5 -10 10 0 6 5 10 10 10 6 0 10 -4 10 -10z m-225 -22 c7 -7 -6 -9
-39 -4 -27 3 -59 6 -72 6 -13 0 -24 4 -24 8 0 12 123 2 135 -10z m-1715 -14
c-32 -9 -209 -19 -202 -12 4 4 36 9 72 11 94 5 147 5 130 1z m1610 -22 c0 -15
-38 -44 -49 -37 -17 10 6 45 29 45 11 0 20 -4 20 -8z m-1647 -59 c-7 -2 -19
-2 -25 0 -7 3 -2 5 12 5 14 0 19 -2 13 -5z m-280 -14 c-7 -7 -38 -14 -70 -16
-73 -6 -63 7 14 17 32 4 60 8 63 9 2 0 -1 -4 -7 -10z m192 0 c-22 -4 -51 -8
-65 -7 l-25 0 25 8 c14 4 43 8 65 8 l40 0 -40 -9z m2382 -41 c61 -9 72 -13 54
-19 -13 -5 -30 -5 -40 0 -9 5 -57 13 -107 17 -49 4 -98 11 -109 16 -24 10 92
3 202 -14z m-2659 5 c-10 -2 -28 -2 -40 0 -13 2 -5 4 17 4 22 1 32 -1 23 -4z"/>
<path d="M2503 1413 c9 -2 23 -2 30 0 6 3 -1 5 -18 5 -16 0 -22 -2 -12 -5z"/>
<path d="M2525 1580 c3 -5 8 -10 11 -10 2 0 4 5 4 10 0 6 -5 10 -11 10 -5 0
-7 -4 -4 -10z"/>
<path d="M1664 1343 c-26 -32 -55 -66 -63 -75 -13 -17 -11 -18 27 -18 29 0 49
7 71 26 37 30 51 88 29 111 -13 13 -21 8 -64 -44z"/>
<path d="M1888 1146 c-69 -53 -98 -106 -58 -106 22 0 140 108 140 128 0 22
-37 12 -82 -22z"/>
<path d="M3418 1123 c6 -2 18 -2 25 0 6 3 1 5 -13 5 -14 0 -19 -2 -12 -5z"/>
<path d="M3468 1113 c7 -3 16 -2 19 1 4 3 -2 6 -13 5 -11 0 -14 -3 -6 -6z"/>
<path d="M3128 1063 c12 -2 32 -2 45 0 12 2 2 4 -23 4 -25 0 -35 -2 -22 -4z"/>
<path d="M3233 1053 c9 -2 23 -2 30 0 6 3 -1 5 -18 5 -16 0 -22 -2 -12 -5z"/>
<path d="M3308 1043 c7 -3 16 -2 19 1 4 3 -2 6 -13 5 -11 0 -14 -3 -6 -6z"/>
<path d="M1743 472 c-35 -2 -63 -7 -63 -11 0 -16 62 -21 229 -20 156 0 228 9
191 22 -18 7 -272 13 -357 9z"/>
</g>
</svg>
